<svg width="90" height="104" xmlns="http://www.w3.org/2000/svg" version="1.1">

 <g>
  <title>Layer 1</title>
  <path id="svg_4" fill="#04EBCE" d="m42,15c13.53,0 27.06,0 41,0c0,4.95 0,9.9 0,15c-3.3,0 -6.6,0 -10,0c0,9.9 0,19.8 0,30c3.96,0 7.92,0 12,0c0.10893,3.3134 0.18776,6.62315 0.25,9.9375c0.03352,0.92619 0.06703,1.85238 0.10156,2.80664c0.1116,7.95158 -1.85773,14.15703 -6.60156,20.56836c-5.49753,5.37258 -11.91121,7.77414 -19.54346,7.8645c-0.94843,0.01284 -1.89687,0.02567 -2.87405,0.0389c-1.0198,0.00738 -2.0396,0.01477 -3.0903,0.02238c-1.58735,0.01211 -1.58735,0.01211 -3.20676,0.02446c-2.24096,0.01383 -4.48194,0.02456 -6.72293,0.03243c-2.28099,0.0115 -4.56195,0.03192 -6.84277,0.06152c-3.3052,0.04288 -6.6096,0.05888 -9.91504,0.06909c-1.00766,0.01751 -2.01531,0.03502 -3.0535,0.05306c-7.34798,-0.02223 -15.08406,-1.06171 -20.50119,-6.47884c11.22,-0.33 22.44,-0.66 34,-1c-1.32,-1.65 -2.64,-3.3 -4,-5c-3.19837,-5.07427 -3.37925,-9.07344 -3.1875,-14.875c0.0203,-1.17562 0.0203,-1.17562 0.04102,-2.375c0.03506,-1.91697 0.08886,-3.83358 0.14648,-5.75c5.28,0 10.56,0 16,0c0.16276,2.96224 0.32552,5.92448 0.48828,8.88672c0.65808,4.00373 1.97209,6.95855 5.26172,9.42578c3.93036,1.20094 7.6521,1.20574 11.5625,-0.0625c2.10153,-1.55669 2.68355,-2.84373 3.6875,-5.25c0.36009,-2.21604 0.36009,-2.21604 0.41406,-4.54687c0.03867,-0.84434 0.07735,-1.68868 0.11719,-2.5586c0.03094,-0.87269 0.06188,-1.74539 0.09375,-2.64453c0.03867,-0.88816 0.07734,-1.77633 0.11719,-2.69141c0.09401,-2.18586 0.17699,-4.3722 0.25781,-6.55859c-3.63,0 -7.26,0 -11,0c0,5.61 0,11.22 0,17c-0.33,0 -0.66,0 -1,0c0,-15.51 0,-31.02 0,-47c-4.62,0 -9.24,0 -14,0c0,-4.95 0,-9.9 0,-15z"/>
  <path id="svg_11" fill="#F805C0" d="m57,60c3.63,0 7.26,0 11,0c0.08116,3.06304 0.14057,6.12391 0.1875,9.1875c0.02514,0.86432 0.05027,1.72863 0.07617,2.61914c0.05636,4.90291 -0.03963,8.22046 -3.26367,12.19336c-3.40996,2.55747 -6.8607,2.30661 -11,2c-0.66,-0.66 -1.32,-1.32 -2,-2c0.9668,-1.456 0.9668,-1.456 1.95312,-2.94141c2.45327,-4.29321 2.70514,-8.12979 2.79688,-12.99609c0.02965,-0.77924 0.0593,-1.55848 0.08984,-2.36133c0.06994,-1.89985 0.1174,-3.80051 0.16016,-5.70117z"/>
  <path id="svg_13" fill="#00EFCF" d="m18,66c2.64,0 5.28,0 8,0c0,9.24 0,18.48 0,28c-5.03038,-5.03038 -8.08596,-8.17935 -8.29297,-15.30469c0.0197,-1.52371 0.05513,-3.0473 0.10547,-4.57031c0.01354,-0.78375 0.02707,-1.5675 0.04102,-2.375c0.03506,-1.91697 0.08886,-3.83358 0.14648,-5.75z"/>
  <path id="svg_16" fill="#F30AC1" d="m26,66c1.32,0 2.64,0 4,0c0.01418,1.12277 0.02836,2.24555 0.04297,3.40234c0.23085,8.6525 0.56839,15.44638 5.95703,22.59766c0.66,0.99 1.32,1.98 2,3c-3.96,0 -7.92,0 -12,0c0,-9.57 0,-19.14 0,-29z"/>
 </g>
</svg>