<svg width="340" height="104" xmlns="http://www.w3.org/2000/svg" version="1.1">

 <g>
  <title>Layer 1</title>
  <path id="svg_2" fill="#02F1D2" d="m126,15c9.9,0 19.8,0 30,0c1.14488,5.44327 2.28604,10.88706 3.41797,16.33301c0.38587,1.85103 0.77387,3.70163 1.16406,5.55176c0.56163,2.66487 1.11552,5.33125 1.66797,7.99804c0.17499,0.82211 0.34998,1.64422 0.53027,2.49124c0.16017,0.78036 0.32034,1.56072 0.48536,2.36472c0.14211,0.67951 0.28423,1.35901 0.43066,2.05911c0.37379,2.71026 0.30371,5.46621 0.30371,8.20212c4.29,0 8.58,0 13,0c0.4718,-2.61035 0.4718,-2.61035 0.95313,-5.27344c2.42463,-13.31218 5.00417,-26.54154 8.04687,-39.72656c9.9,0 19.8,0 30,0c0,14.85 0,29.7 0,45c3.96,0 7.92,0 12,0c0,12.87 0,25.74 0,39c-5.28,0 -10.56,0 -16,0c0,-12.87 0,-25.74 0,-39c-2.97,0 -5.94,0 -9,0c-0.06059,0.73605 -0.12117,1.47211 -0.18359,2.23047c-0.08379,0.97582 -0.16758,1.95164 -0.25391,2.95703c-0.12182,1.44439 -0.12182,1.44439 -0.24609,2.91797c-0.31641,2.89453 -0.31641,2.89453 -0.81641,5.14453c-0.7568,4.16243 -0.87048,8.34127 -1.0625,12.5625c-0.06478,1.32548 -0.06478,1.32548 -0.13086,2.67773c-0.10556,2.16977 -0.20655,4.33975 -0.30664,6.50977c1.32,0 2.64,0 4,0c0,1.32 0,2.64 0,4c-23.43,0 -46.86,0 -71,0c0,-1.32 0,-2.64 0,-4c1.65,0 3.3,0 5,0c0,-11.55 0,-23.1 0,-35c-3.96,0 -7.92,0 -12,0c0,-14.85 0,-29.7 0,-45z"/>
  <path id="svg_3" fill="#00F1D1" d="m262,15c5.28,0 10.56,0 16,0c0,11.22 0,22.44 0,34c10.23,0 20.46,0 31,0c0,-11.22 0,-22.44 0,-34c5.28,0 10.56,0 16,0c0,14.85 0,29.7 0,45c3.96,0 7.92,0 12,0c0,12.87 0,25.74 0,39c-5.28,0 -10.56,0 -16,0c0,-11.55 0,-23.1 0,-35c-10.23,0 -20.46,0 -31,0c0,10.23 0,20.46 0,31c7.59,0 15.18,0 23,0c0,1.32 0,2.64 0,4c-12.87,0 -25.74,0 -39,0c0,-12.87 0,-25.74 0,-39c-3.96,0 -7.92,0 -12,0c0,-14.85 0,-29.7 0,-45z"/>
  <path id="svg_4" fill="#04EBCE" d="m42,15c13.53,0 27.06,0 41,0c0,4.95 0,9.9 0,15c-3.3,0 -6.6,0 -10,0c0,9.9 0,19.8 0,30c3.96,0 7.92,0 12,0c0.10893,3.3134 0.18776,6.62315 0.25,9.9375c0.03352,0.92619 0.06703,1.85238 0.10156,2.80664c0.1116,7.95158 -1.85773,14.15703 -6.60156,20.56836c-5.49753,5.37258 -11.91121,7.77414 -19.54346,7.8645c-0.94843,0.01284 -1.89687,0.02567 -2.87405,0.0389c-1.0198,0.00738 -2.0396,0.01477 -3.0903,0.02238c-1.58735,0.01211 -1.58735,0.01211 -3.20676,0.02446c-2.24096,0.01383 -4.48194,0.02456 -6.72293,0.03243c-2.28099,0.0115 -4.56195,0.03192 -6.84277,0.06152c-3.3052,0.04288 -6.6096,0.05888 -9.91504,0.06909c-1.00766,0.01751 -2.01531,0.03502 -3.0535,0.05306c-7.34798,-0.02223 -15.08406,-1.06171 -20.50119,-6.47884c11.22,-0.33 22.44,-0.66 34,-1c-1.32,-1.65 -2.64,-3.3 -4,-5c-3.19837,-5.07427 -3.37925,-9.07344 -3.1875,-14.875c0.0203,-1.17562 0.0203,-1.17562 0.04102,-2.375c0.03506,-1.91697 0.08886,-3.83358 0.14648,-5.75c5.28,0 10.56,0 16,0c0.16276,2.96224 0.32552,5.92448 0.48828,8.88672c0.65808,4.00373 1.97209,6.95855 5.26172,9.42578c3.93036,1.20094 7.6521,1.20574 11.5625,-0.0625c2.10153,-1.55669 2.68355,-2.84373 3.6875,-5.25c0.36009,-2.21604 0.36009,-2.21604 0.41406,-4.54687c0.03867,-0.84434 0.07735,-1.68868 0.11719,-2.5586c0.03094,-0.87269 0.06188,-1.74539 0.09375,-2.64453c0.03867,-0.88816 0.07734,-1.77633 0.11719,-2.69141c0.09401,-2.18586 0.17699,-4.3722 0.25781,-6.55859c-3.63,0 -7.26,0 -11,0c0,5.61 0,11.22 0,17c-0.33,0 -0.66,0 -1,0c0,-15.51 0,-31.02 0,-47c-4.62,0 -9.24,0 -14,0c0,-4.95 0,-9.9 0,-15z"/>
  <path id="svg_5" fill="#1A1827" d="m290,64c6.27,0 12.54,0 19,0c0,10.23 0,20.46 0,31c-6.27,0 -12.54,0 -19,0c0,-10.23 0,-20.46 0,-31z"/>
  <path id="svg_6" fill="#F608C1" d="m262,60c3.96,0 7.92,0 12,0c0,12.87 0,25.74 0,39c-2.64,0 -5.28,0 -8,0c0,-1.32 0,-2.64 0,-4c-1.32,0 -2.64,0 -4,0c0,-11.55 0,-23.1 0,-35z"/>
  <path id="svg_7" fill="#F30AC1" d="m126,60c3.96,0 7.92,0 12,0c0,11.55 0,23.1 0,35c-1.65,0 -3.3,0 -5,0c0,1.32 0,2.64 0,4c-1.32,0 -2.64,0 -4,0c0,-1.32 0,-2.64 0,-4c-0.99,0 -1.98,0 -3,0c0,-11.55 0,-23.1 0,-35z"/>
  <path id="svg_8" fill="#F706C1" d="m203,60c2.97,0 5.94,0 9,0c0,12.87 0,25.74 0,39c-2.64,0 -5.28,0 -8,0c0,-1.32 0,-2.64 0,-4c-1.32,0 -2.64,0 -4,0c-0.35483,-12.09052 0.26636,-23.20305 3,-35z"/>
  <path id="svg_9" fill="#F608C1" d="m309,64c3.96,0 7.92,0 12,0c0,11.55 0,23.1 0,35c-2.64,0 -5.28,0 -8,0c0,-1.32 0,-2.64 0,-4c-1.32,0 -2.64,0 -4,0c0,-10.23 0,-20.46 0,-31z"/>
  <path id="svg_10" fill="#F707C1" d="m154,60c2.64,0 5.28,0 8,0c0.86393,3.85741 1.71804,7.71686 2.56348,11.57837c0.4295,1.95221 0.86654,3.90276 1.30371,5.85327c0.2707,1.24072 0.5414,2.48145 0.82031,3.75977c0.25137,1.13639 0.50273,2.27277 0.76172,3.4436c0.57498,3.51281 0.64558,6.81184 0.55078,10.36499c-3.63,0 -7.26,0 -11,0c-3.81179,-11.59418 -3.29954,-22.91389 -3,-35z"/>
  <path id="svg_11" fill="#F805C0" d="m57,60c3.63,0 7.26,0 11,0c0.08116,3.06304 0.14057,6.12391 0.1875,9.1875c0.02514,0.86432 0.05027,1.72863 0.07617,2.61914c0.05636,4.90291 -0.03963,8.22046 -3.26367,12.19336c-3.40996,2.55747 -6.8607,2.30661 -11,2c-0.66,-0.66 -1.32,-1.32 -2,-2c0.9668,-1.456 0.9668,-1.456 1.95312,-2.94141c2.45327,-4.29321 2.70514,-8.12979 2.79688,-12.99609c0.02965,-0.77924 0.0593,-1.55848 0.08984,-2.36133c0.06994,-1.89985 0.1174,-3.80051 0.16016,-5.70117z"/>
  <path id="svg_12" fill="#F10DC1" d="m177,60c3.96,0 7.92,0 12,0c-1.37463,9.41091 -3.06869,18.69109 -5,28c-0.99,0 -1.98,0 -3,0c-0.67365,-3.72794 -1.33769,-7.45753 -2,-11.1875c-0.19078,-1.0551 -0.38156,-2.1102 -0.57812,-3.19727c-0.18047,-1.02158 -0.36094,-2.04316 -0.54688,-3.0957c-0.16758,-0.93739 -0.33516,-1.87478 -0.50781,-2.84057c-0.36719,-2.67896 -0.36719,-2.67896 -0.36719,-7.67896z"/>
  <path id="svg_13" fill="#00EFCF" d="m18,66c2.64,0 5.28,0 8,0c0,9.24 0,18.48 0,28c-5.03038,-5.03038 -8.08596,-8.17935 -8.29297,-15.30469c0.0197,-1.52371 0.05513,-3.0473 0.10547,-4.57031c0.01354,-0.78375 0.02707,-1.5675 0.04102,-2.375c0.03506,-1.91697 0.08886,-3.83358 0.14648,-5.75z"/>
  <path id="svg_14" fill="#16343C" d="m141,27c0.99,0 1.98,0 3,0c0.85687,4.37779 1.71131,8.75605 2.56348,13.13477c0.29034,1.49004 0.58135,2.97995 0.87304,4.46972c0.41875,2.13931 0.8351,4.27908 1.25098,6.41895c0.25137,1.28825 0.50273,2.57651 0.76172,3.90381c0.55078,3.07275 0.55078,3.07275 0.55078,5.07275c-2.97,0 -5.94,0 -9,0c0,-10.89 0,-21.78 0,-33z"/>
  <path id="svg_15" fill="#172531" d="m198,27c0.66,0 1.32,0 2,0c0,10.89 0,21.78 0,33c-2.64,0 -5.28,0 -8,0c0.5511,-7.54386 1.88895,-14.75577 3.5625,-22.125c0.23396,-1.05187 0.46793,-2.10375 0.70898,-3.1875c0.57101,-2.5637 1.14726,-5.1261 1.72852,-7.6875z"/>
  <path id="svg_16" fill="#F30AC1" d="m26,66c1.32,0 2.64,0 4,0c0.01418,1.12277 0.02836,2.24555 0.04297,3.40234c0.23085,8.6525 0.56839,15.44638 5.95703,22.59766c0.66,0.99 1.32,1.98 2,3c-3.96,0 -7.92,0 -12,0c0,-9.57 0,-19.14 0,-29z"/>
  <path id="svg_17" fill="#02EECF" d="m238,95c9.24,0 18.48,0 28,0c0,1.32 0,2.64 0,4c-9.24,0 -18.48,0 -28,0c0,-1.32 0,-2.64 0,-4z"/>
  <path id="svg_18" fill="#01EFD0" d="m102,95c8.91,0 17.82,0 27,0c0,1.32 0,2.64 0,4c-8.91,0 -17.82,0 -27,0c0,-1.32 0,-2.64 0,-4z"/>
  <path id="svg_19" fill="#4E739E" d="m153,60c0.33,0 0.66,0 1,0c0.01982,0.65484 0.03964,1.30969 0.06006,1.98438c0.09605,3.00556 0.2054,6.01051 0.31494,9.01562c0.03094,1.02996 0.06188,2.05992 0.09375,3.12109c0.22709,5.94224 0.95933,11.15354 2.53125,16.87891c0,1.32 0,2.64 0,4c-1.32,0 -2.64,0 -4,0c0,-11.55 0,-23.1 0,-35z"/>
  <path id="svg_20" fill="#16333B" d="m199,81c0.33,0 0.66,0 1,0c0,4.62 0,9.24 0,14c-0.99,0 -1.98,0 -3,0c0.96355,-9.41002 0.96355,-9.41002 2,-14z"/>
  <path id="svg_21" fill="#382D50" d="m154,87c0.99,0.495 0.99,0.495 2,1c0.40729,2.32157 0.74439,4.65688 1,7c-0.99,0 -1.98,0 -3,0c0,-2.64 0,-5.28 0,-8z"/>
 </g>
</svg>